name rise44.8762peak52.3436fall86.788.mot
datacolumns 19
datarows 35
range 9.45495900000000 9.51162500000000
endheader
time	ground_force1_vx	ground_force1_vy	ground_force1_vz	ground_force1_px	ground_force1_py	ground_force1_pz	ground_force2_vx	ground_force2_vy	ground_force2_vz	ground_force2_px	ground_force2_py	ground_force2_pz	ground_torque1_x	ground_torque1_y	ground_torque1_z	ground_torque2_x	ground_torque2_y	ground_torque2_z	
9.45495900000000	-36.34218700000000	768.53474900000003	57.65205500000000	0.08552100000000	0.00000000000000	0.10638800000000	3.86386300000000	56.25426100000000	-0.46025900000000	0.30539800000000	0.00000000000000	-0.09100200000000	0.00000000000000	19.15712400000000	0.00000000000000	0.00000000000000	0.23838600000000	0.00000000000000	
9.45663500000000	-36.57940200000000	766.26704900000004	57.48305400000000	0.08487800000000	0.00000000000000	0.10630400000000	4.20746400000000	63.36530800000000	-0.56902800000000	0.30957300000000	0.00000000000000	-0.09121400000000	0.00000000000000	19.01902400000000	0.00000000000000	0.00000000000000	0.22562300000000	0.00000000000000	
9.45829900000000	-36.82127100000000	763.89625699999999	57.29423000000000	0.08424400000000	0.00000000000000	0.10621700000000	4.52199100000000	70.36537400000000	-0.68997700000000	0.31334100000000	0.00000000000000	-0.09140400000000	0.00000000000000	18.87982300000000	0.00000000000000	0.00000000000000	0.20319900000000	0.00000000000000	
9.45996500000000	-37.06829600000000	761.42174199999999	57.08507700000000	0.08362000000000	0.00000000000000	0.10612700000000	4.80906100000000	77.20950600000000	-0.82311700000000	0.31675400000000	0.00000000000000	-0.09157700000000	0.00000000000000	18.73971500000000	0.00000000000000	0.00000000000000	0.17135900000000	0.00000000000000	
9.46162500000000	-37.32095300000000	758.84290399999998	56.85512000000000	0.08300500000000	0.00000000000000	0.10603500000000	5.07286200000000	83.87830599999999	-0.96844500000000	0.31985400000000	0.00000000000000	-0.09173500000000	0.00000000000000	18.59888900000000	0.00000000000000	0.00000000000000	0.13067900000000	0.00000000000000	
9.46329800000000	-37.57969100000000	756.15916200000004	56.60392100000000	0.08239900000000	0.00000000000000	0.10593900000000	5.31965000000000	90.37546600000000	-1.12597600000000	0.32267600000000	0.00000000000000	-0.09188100000000	0.00000000000000	18.45753200000000	0.00000000000000	0.00000000000000	0.08198200000000	0.00000000000000	
9.46495900000000	-37.84493100000000	753.36995600000000	56.33107700000000	0.08180200000000	0.00000000000000	0.10584000000000	5.55715900000000	96.72381300000001	-1.29575600000000	0.32525200000000	0.00000000000000	-0.09201600000000	0.00000000000000	18.31582600000000	0.00000000000000	0.00000000000000	0.02626200000000	0.00000000000000	
9.46663200000000	-38.11706000000000	750.47474199999999	56.03622400000000	0.08121200000000	0.00000000000000	0.10573900000000	5.79396000000000	102.96046000000000	-1.47787200000000	0.32760700000000	0.00000000000000	-0.09214200000000	0.00000000000000	18.17394900000000	0.00000000000000	0.00000000000000	-0.03540900000000	0.00000000000000	
9.46829200000000	-38.39642800000000	747.47299099999998	55.71903900000000	0.08063100000000	0.00000000000000	0.10563400000000	6.03886200000000	109.13162300000000	-1.67246000000000	0.32976300000000	0.00000000000000	-0.09226000000000	0.00000000000000	18.03207400000000	0.00000000000000	0.00000000000000	-0.10195500000000	0.00000000000000	
9.46995800000000	-38.68334700000000	744.36418400000002	55.37924300000000	0.08005700000000	0.00000000000000	0.10552600000000	6.30037400000000	115.28758200000000	-1.87969700000000	0.33174000000000	0.00000000000000	-0.09237200000000	0.00000000000000	17.89036700000000	0.00000000000000	0.00000000000000	-0.17236300000000	0.00000000000000	
9.47163100000000	-38.97808900000000	741.14781000000005	55.01660000000000	0.07949000000000	0.00000000000000	0.10541500000000	6.58627000000000	121.47816000000000	-2.09980000000000	0.33355300000000	0.00000000000000	-0.09247700000000	0.00000000000000	17.74898700000000	0.00000000000000	0.00000000000000	-0.24573500000000	0.00000000000000	
9.47329200000000	-39.28087900000000	737.82336599999996	54.63092000000000	0.07892900000000	0.00000000000000	0.10530100000000	6.90327100000000	127.74899300000000	-2.33301600000000	0.33521900000000	0.00000000000000	-0.09257800000000	0.00000000000000	17.60808900000000	0.00000000000000	0.00000000000000	-0.32132200000000	0.00000000000000	
9.47495900000000	-39.59189500000000	734.39035400000000	54.22206300000000	0.07837500000000	0.00000000000000	0.10518400000000	7.25684700000000	134.13873699999999	-2.57960400000000	0.33674800000000	0.00000000000000	-0.09267400000000	0.00000000000000	17.46781800000000	0.00000000000000	0.00000000000000	-0.39854200000000	0.00000000000000	
9.47663100000000	-39.91126700000000	730.84827800000005	53.78993400000000	0.07782600000000	0.00000000000000	0.10506400000000	7.65113400000000	140.67725799999999	-2.83983000000000	0.33815400000000	0.00000000000000	-0.09276600000000	0.00000000000000	17.32831100000000	0.00000000000000	0.00000000000000	-0.47698200000000	0.00000000000000	
9.47829400000000	-40.23907200000000	727.19664200000000	53.33449200000000	0.07728200000000	0.00000000000000	0.10494000000000	8.08895300000000	147.38477499999999	-3.11394400000000	0.33944400000000	0.00000000000000	-0.09285400000000	0.00000000000000	17.18969800000000	0.00000000000000	0.00000000000000	-0.55639000000000	0.00000000000000	
9.47996500000000	-40.57533100000000	723.43495399999995	52.85574600000000	0.07674300000000	0.00000000000000	0.10481400000000	8.57190700000000	154.27183700000000	-3.40217800000000	0.34062900000000	0.00000000000000	-0.09294000000000	0.00000000000000	17.05209800000000	0.00000000000000	0.00000000000000	-0.63665500000000	0.00000000000000	
9.48162900000000	-40.92000900000000	719.56271900000002	52.35375800000000	0.07620800000000	0.00000000000000	0.10468400000000	9.10053800000000	161.33999299999999	-3.70472800000000	0.34171500000000	0.00000000000000	-0.09302300000000	0.00000000000000	16.91562300000000	0.00000000000000	0.00000000000000	-0.71778200000000	0.00000000000000	
9.48329700000000	-41.27301100000000	715.57944099999997	51.82864200000000	0.07567600000000	0.00000000000000	0.10455200000000	9.67451700000000	168.58297300000001	-4.02174600000000	0.34271000000000	0.00000000000000	-0.09310400000000	0.00000000000000	16.78037100000000	0.00000000000000	0.00000000000000	-0.79986300000000	0.00000000000000	
9.48496100000000	-41.63418300000000	711.48462199999994	51.28056700000000	0.07514800000000	0.00000000000000	0.10441600000000	10.29285600000000	175.98819599999999	-4.35333700000000	0.34362000000000	0.00000000000000	-0.09318300000000	0.00000000000000	16.64643400000000	0.00000000000000	0.00000000000000	-0.88304500000000	0.00000000000000	
9.48663400000000	-42.00330400000000	707.27776400000005	50.70975500000000	0.07462200000000	0.00000000000000	0.10427700000000	10.95410800000000	183.53844200000000	-4.69954900000000	0.34445100000000	0.00000000000000	-0.09326000000000	0.00000000000000	16.51389000000000	0.00000000000000	0.00000000000000	-0.96750900000000	0.00000000000000	
9.48830000000000	-42.38009000000000	702.95836399999996	50.11648300000000	0.07409800000000	0.00000000000000	0.10413500000000	11.65655500000000	191.21352099999999	-5.06037700000000	0.34520600000000	0.00000000000000	-0.09333500000000	0.00000000000000	16.38280700000000	0.00000000000000	0.00000000000000	-1.05343600000000	0.00000000000000	
9.48996100000000	-42.76419300000000	698.52592100000004	49.50108200000000	0.07357500000000	0.00000000000000	0.10399100000000	12.39836900000000	198.99183099999999	-5.43575600000000	0.34589100000000	0.00000000000000	-0.09340900000000	0.00000000000000	16.25324000000000	0.00000000000000	0.00000000000000	-1.14099700000000	0.00000000000000	
9.49162800000000	-43.15519400000000	693.97993399999996	48.86393900000000	0.07305400000000	0.00000000000000	0.10384300000000	13.17772900000000	206.85170500000001	-5.82556500000000	0.34651000000000	0.00000000000000	-0.09348200000000	0.00000000000000	16.12523400000000	0.00000000000000	0.00000000000000	-1.23032900000000	0.00000000000000	
9.49330000000000	-43.55260700000000	689.31990099999996	48.20549300000000	0.07253300000000	0.00000000000000	0.10369300000000	13.99291600000000	214.77248499999999	-6.22962800000000	0.34706600000000	0.00000000000000	-0.09355400000000	0.00000000000000	15.99882000000000	0.00000000000000	0.00000000000000	-1.32153200000000	0.00000000000000	
9.49496400000000	-43.95587700000000	684.54532600000005	47.52623600000000	0.07201100000000	0.00000000000000	0.10354000000000	14.84236000000000	222.73532000000000	-6.64772100000000	0.34756200000000	0.00000000000000	-0.09362400000000	0.00000000000000	15.87401700000000	0.00000000000000	0.00000000000000	-1.41466200000000	0.00000000000000	
9.49662600000000	-44.36438000000000	679.65571899999998	46.82671600000000	0.07148900000000	0.00000000000000	0.10338400000000	15.72465900000000	230.72365300000001	-7.07956500000000	0.34800100000000	0.00000000000000	-0.09369400000000	0.00000000000000	15.75083100000000	0.00000000000000	0.00000000000000	-1.50972800000000	0.00000000000000	
9.49829700000000	-44.77742000000000	674.65060000000005	46.10752900000000	0.07096600000000	0.00000000000000	0.10322500000000	16.63857300000000	238.72345400000000	-7.52484200000000	0.34838600000000	0.00000000000000	-0.09376300000000	0.00000000000000	15.62925800000000	0.00000000000000	0.00000000000000	-1.60670000000000	0.00000000000000	
9.49996400000000	-45.19423400000000	669.52950299999998	45.36932300000000	0.07044100000000	0.00000000000000	0.10306400000000	17.58299600000000	246.72321500000001	-7.98318700000000	0.34871900000000	0.00000000000000	-0.09383100000000	0.00000000000000	15.50927600000000	0.00000000000000	0.00000000000000	-1.70551100000000	0.00000000000000	
9.50162900000000	-45.61398900000000	664.29198299999996	44.61279600000000	0.06991400000000	0.00000000000000	0.10290100000000	18.55690800000000	254.71376799999999	-8.45420100000000	0.34900200000000	0.00000000000000	-0.09389800000000	0.00000000000000	15.39085500000000	0.00000000000000	0.00000000000000	-1.80606400000000	0.00000000000000	
9.50329200000000	-46.03578600000000	658.93762000000004	43.83869200000000	0.06938400000000	0.00000000000000	0.10273500000000	19.55933000000000	262.68796300000002	-8.93744700000000	0.34923600000000	0.00000000000000	-0.09396500000000	0.00000000000000	15.27394900000000	0.00000000000000	0.00000000000000	-1.90824300000000	0.00000000000000	
9.50495800000000	-46.45865800000000	653.46602800000005	43.04780400000000	0.06885000000000	0.00000000000000	0.10256700000000	20.58926700000000	270.64028100000002	-9.43245400000000	0.34942500000000	0.00000000000000	-0.09403200000000	0.00000000000000	15.15850100000000	0.00000000000000	0.00000000000000	-2.01191700000000	0.00000000000000	
9.50663300000000	-46.88157300000000	647.87686299999996	42.24096500000000	0.06831300000000	0.00000000000000	0.10239700000000	21.64566400000000	278.56640599999997	-9.93872300000000	0.34956800000000	0.00000000000000	-0.09409800000000	0.00000000000000	15.04444200000000	0.00000000000000	0.00000000000000	-2.11695100000000	0.00000000000000	
9.50829300000000	-47.30343700000000	642.16982900000005	41.41905400000000	0.06777100000000	0.00000000000000	0.10222400000000	22.72735500000000	286.46280700000000	-10.45572400000000	0.34966800000000	0.00000000000000	-0.09416300000000	0.00000000000000	14.93168800000000	0.00000000000000	0.00000000000000	-2.22321000000000	0.00000000000000	
9.50995900000000	-47.72309700000000	636.34469200000001	40.58298800000000	0.06722400000000	0.00000000000000	0.10205000000000	23.83303600000000	294.32636500000001	-10.98290100000000	0.34972500000000	0.00000000000000	-0.09422800000000	0.00000000000000	14.82014700000000	0.00000000000000	0.00000000000000	-2.33056500000000	0.00000000000000	
9.51162500000000	-48.13934000000000	630.40128400000003	39.73372100000000	0.06667100000000	0.00000000000000	0.10187400000000	24.96123900000000	302.15406200000001	-11.51967600000000	0.34974100000000	0.00000000000000	-0.09429300000000	0.00000000000000	14.70971200000000	0.00000000000000	0.00000000000000	-2.43889700000000	0.00000000000000	
